<svg width="76" height="76" xmlns="http://www.w3.org/2000/svg" viewBox="0 0 100 100" preserveAspectRatio="xMidYMid" class="uil-triangle"><path fill="none" class="bk" d="M0 0h100v100H0z"/><path d="M34.5 52.4c-.8 1.4-2.2 1.4-3 0L17.2 27.6c-.8-1.4-.2-2.6 1.5-2.6h28.6c1.6 0 2.3 1.2 1.5 2.6L34.5 52.4z" fill="#d74a06"><animateTransform attributeName="transform" type="rotate" from="0 33 35" to="120 33 35" repeatCount="indefinite" dur="1s"/></path><path d="M68.5 52.4c-.8 1.4-2.2 1.4-3 0L51.2 27.6c-.8-1.4-.2-2.6 1.5-2.6h28.6c1.7 0 2.3 1.2 1.5 2.6L68.5 52.4z" fill="#ffdb00"><animateTransform attributeName="transform" type="rotate" from="0 67 35" to="120 67 35" repeatCount="indefinite" dur="1s"/></path><path d="M51.5 82.4c-.8 1.4-2.2 1.4-3 0L34.2 57.6c-.8-1.4-.2-2.6 1.5-2.6h28.6c1.7 0 2.3 1.2 1.5 2.6L51.5 82.4z" fill="#6306e5"><animateTransform attributeName="transform" type="rotate" from="0 50 65" to="120 50 65" repeatCount="indefinite" dur="1s"/></path></svg>